<svg xmlns="http://www.w3.org/2000/svg" style="display: none">
    <!-- Calendar -->
    <symbol id="calendar" viewBox="0 0 24 24">
        <path d="M13.5 21h-7.5a2 2 0 0 1 -2 -2v-12a2 2 0 0 1 2 -2h12a2 2 0 0 1 2 2v5" />
        <path d="M16 3v4" />
        <path d="M8 3v4" />
        <path d="M4 11h16" />
        <path d="M19 16l-2 3h4l-2 3" />
    </symbol>

    <!-- Point Map -->
    <symbol id="pointmap" viewBox="0 0 24 24">
        <path d="M9 11a3 3 0 1 0 6 0a3 3 0 0 0 -6 0" />
        <path d="M17.657 16.657l-4.243 4.243a2 2 0 0 1 -2.827 0l-4.244 -4.243a8 8 0 1 1 11.314 0z" />
    </symbol>

    <!-- Folder -->
    <symbol id="folder" viewBox="0 0 24 24">
        <path d="M3 7m0 2a2 2 0 0 1 2 -2h14a2 2 0 0 1 2 2v9a2 2 0 0 1 -2 2h-14a2 2 0 0 1 -2 -2z" />
        <path d="M8 7v-2a2 2 0 0 1 2 -2h4a2 2 0 0 1 2 2v2" />
        <path d="M12 12l0 .01" />
        <path d="M3 13a20 20 0 0 0 18 0" />
    </symbol>

    <!-- Money -->
    <symbol id="money" viewBox="0 0 24 24">
        <path
            d="M9.5 3h5a1.5 1.5 0 0 1 1.5 1.5a3.5 3.5 0 0 1 -3.5 3.5h-1a3.5 3.5 0 0 1 -3.5 -3.5a1.5 1.5 0 0 1 1.5 -1.5z" />
        <path d="M4 17v-1a8 8 0 1 1 16 0v1a4 4 0 0 1 -4 4h-8a4 4 0 0 1 -4 -4z" />
    </symbol>

    <!-- Search -->
    <symbol id="search" viewBox="0 0 24 24">
        <path d="M10 10m-7 0a7 7 0 1 0 14 0a7 7 0 1 0 -14 0" />
        <path d="M21 21l-6 -6" />
    </symbol>


    <symbol id="home" viewBox="0 0 24 24">
        <path d="M5 12l-2 0l9 -9l9 9l-2 0" />
        <path d="M5 12v7a2 2 0 0 0 2 2h10a2 2 0 0 0 2 -2v-7" />
        <path d="M10 12h4v4h-4z" />
    </symbol>

    <svg id="portafolio" viewBox="0 0 24 24">
        <path d="M3 7m0 2a2 2 0 0 1 2 -2h14a2 2 0 0 1 2 2v9a2 2 0 0 1 -2 2h-14a2 2 0 0 1 -2 -2z" />
        <path d="M8 7v-2a2 2 0 0 1 2 -2h4a2 2 0 0 1 2 2v2" />
        <path d="M12 12l0 .01" />
        <path d="M3 13a20 20 0 0 0 18 0" />
    </svg>

    <svg id="file" viewBox="0 0 24 24">
        <path d="M9 5h-2a2 2 0 0 0 -2 2v12a2 2 0 0 0 2 2h10a2 2 0 0 0 2 -2v-12a2 2 0 0 0 -2 -2h-2" />
        <path d="M9 3m0 2a2 2 0 0 1 2 -2h2a2 2 0 0 1 2 2v0a2 2 0 0 1 -2 2h-2a2 2 0 0 1 -2 -2z" />
        <path d="M10 14h4" />
        <path d="M12 12v4" />
    </svg>

    <svg id="logout" viewBox="0 0 24 24">
        <path d="M10 8v-2a2 2 0 0 1 2 -2h7a2 2 0 0 1 2 2v12a2 2 0 0 1 -2 2h-7a2 2 0 0 1 -2 -2v-2" />
        <path d="M15 12h-12l3 -3" />
        <path d="M6 15l-3 -3" />
    </svg>


    <svg id="login" viewBox="0 0 24 24">
        <path d="M9 8v-2a2 2 0 0 1 2 -2h7a2 2 0 0 1 2 2v12a2 2 0 0 1 -2 2h-7a2 2 0 0 1 -2 -2v-2" />
        <path d="M3 12h13l-3 -3" />
        <path d="M13 15l3 -3" />
    </svg>

    <svg id="register" viewBox="0 0 24 24">
        <path d="M7 7h-1a2 2 0 0 0 -2 2v9a2 2 0 0 0 2 2h9a2 2 0 0 0 2 -2v-1" />
        <path d="M20.385 6.585a2.1 2.1 0 0 0 -2.97 -2.97l-8.415 8.385v3h3l8.385 -8.415z" />
        <path d="M16 5l3 3" />
    </svg>

    <svg id="misPostulaciones" viewBox="0 0 24 24">
        <path d="M14 3v4a1 1 0 0 0 1 1h4" />
        <path d="M17 21h-10a2 2 0 0 1 -2 -2v-14a2 2 0 0 1 2 -2h7l5 5v11a2 2 0 0 1 -2 2z" />
        <path d="M9 9l1 0" />
        <path d="M9 13l6 0" />
        <path d="M9 17l6 0" />
    </svg>


    <svg id="añadirOferta" viewBox="0 0 24 24">
        <path d="M3 12a9 9 0 1 0 18 0a9 9 0 0 0 -18 0" />
        <path d="M9 12h6" />
        <path d="M12 9v6" />
    </svg>


    <svg id="misPublicaciones" viewBox="0 0 24 24">
        <path d="M14 3v4a1 1 0 0 0 1 1h4" />
        <path d="M17 21h-10a2 2 0 0 1 -2 -2v-14a2 2 0 0 1 2 -2h7l5 5v11a2 2 0 0 1 -2 2z" />
        <path d="M9 9l1 0" />
        <path d="M9 13l6 0" />
        <path d="M9 17l6 0" />
    </svg>


</svg>